<svg width="100" height="22" fill="none" xmlns="http://www.w3.org/2000/svg"><path d="M5.222 18.707c0 .656.068 1.131.206 1.426.137.294.39.498.755.61.367.091.962.137 1.787.137h3.744c1.306 0 2.348-.396 3.126-1.189.779-.792 1.294-1.89 1.546-3.293 0-.068.058-.09.172-.068.137 0 .206.034.206.102-.206 1.879-.31 3.43-.31 4.651 0 .181-.033.317-.102.408-.069.068-.206.102-.412.102H.069c-.046 0-.069-.068-.069-.204 0-.136.023-.204.069-.204.87 0 1.5-.056 1.89-.17.411-.113.686-.328.824-.645.137-.34.206-.848.206-1.527V3.123c0-.679-.069-1.177-.206-1.493-.138-.317-.413-.532-.825-.645C1.568.849.94.78.068.78.024.78 0 .713 0 .577 0 .441.023.373.069.373l1.683.034c.962.046 1.74.068 2.336.068.641 0 1.443-.022 2.405-.068L8.142.373c.068 0 .103.068.103.204 0 .136-.035.204-.103.204-.848 0-1.478.068-1.89.204-.39.113-.664.34-.824.679-.138.316-.206.814-.206 1.493v15.55ZM32.21 22c-2.13 0-4.03-.487-5.702-1.46a10.484 10.484 0 0 1-3.848-4.006c-.893-1.698-1.34-3.542-1.34-5.534 0-2.331.596-4.323 1.787-5.975a11.142 11.142 0 0 1 4.569-3.769C29.554.42 31.466 0 33.413 0c2.175 0 4.088.51 5.736 1.528 1.65.996 2.909 2.32 3.78 3.972a10.904 10.904 0 0 1 1.339 5.262c0 2.06-.55 3.95-1.649 5.67-1.1 1.72-2.576 3.078-4.431 4.074C36.355 21.502 34.362 22 32.21 22Zm1.203-.713c1.557 0 2.954-.373 4.19-1.12 1.26-.747 2.245-1.845 2.955-3.294.733-1.448 1.1-3.168 1.1-5.16 0-2.128-.402-4.018-1.203-5.67-.802-1.652-1.935-2.942-3.401-3.87C35.61 1.245 33.916.78 31.97.78c-2.52 0-4.49.803-5.909 2.41-1.42 1.607-2.13 3.814-2.13 6.62 0 2.128.4 4.075 1.203 5.84.801 1.743 1.923 3.124 3.366 4.142 1.443.996 3.08 1.494 4.913 1.494ZM62.305 22c-2.496 0-4.672-.475-6.527-1.426-1.855-.95-3.275-2.24-4.26-3.87-.962-1.63-1.443-3.452-1.443-5.466 0-2.196.561-4.142 1.684-5.84 1.145-1.697 2.702-3.021 4.672-3.972C58.423.476 60.667 0 63.164 0c1.122 0 2.187.113 3.195.34 1.03.203 1.866.497 2.507.882.183.113.287.215.31.306.045.068.08.226.102.475l.413 3.803c0 .067-.069.113-.206.135-.115 0-.183-.034-.207-.101-.503-1.63-1.42-2.886-2.748-3.769-1.305-.883-2.92-1.324-4.843-1.324-2.886 0-5.119.826-6.7 2.478-1.58 1.653-2.37 3.916-2.37 6.79 0 2.196.447 4.165 1.34 5.908.916 1.72 2.176 3.067 3.779 4.04 1.603.973 3.401 1.46 5.393 1.46 1.168 0 2.073-.102 2.714-.306.641-.203 1.111-.6 1.409-1.188.297-.588.446-1.46.446-2.614 0-1.177-.08-1.992-.24-2.445-.138-.475-.47-.792-.996-.95-.504-.159-1.386-.238-2.646-.238-.137 0-.206-.09-.206-.271 0-.068.012-.125.035-.17.045-.068.091-.102.137-.102 1.787.113 3.23.17 4.329.17 1.076 0 2.198-.034 3.366-.102.046 0 .08.034.103.102.046.045.069.09.069.135 0 .159-.057.238-.172.238-.55-.023-.939.057-1.168.238-.229.158-.378.498-.447 1.018-.068.52-.102 1.426-.102 2.716 0 1.019.034 1.743.102 2.173.092.43.138.702.138.815 0 .136-.023.226-.069.272-.046.045-.149.09-.309.135-2.771.634-5.21.951-7.317.951ZM87.942 22c-2.13 0-4.03-.487-5.702-1.46a10.482 10.482 0 0 1-3.848-4.006c-.893-1.698-1.34-3.542-1.34-5.534 0-2.331.596-4.323 1.787-5.975a11.14 11.14 0 0 1 4.569-3.769C85.286.42 87.198 0 89.145 0c2.175 0 4.088.51 5.737 1.528 1.648.996 2.908 2.32 3.778 3.972a10.905 10.905 0 0 1 1.34 5.262c0 2.06-.55 3.95-1.649 5.67-1.1 1.72-2.576 3.078-4.431 4.074-1.833.996-3.825 1.494-5.978 1.494Zm1.203-.713c1.557 0 2.954-.373 4.19-1.12 1.26-.747 2.245-1.845 2.955-3.294.733-1.448 1.1-3.168 1.1-5.16 0-2.128-.402-4.018-1.203-5.67-.802-1.652-1.935-2.942-3.401-3.87C91.343 1.245 89.648.78 87.702.78c-2.52 0-4.489.803-5.909 2.41-1.42 1.607-2.13 3.814-2.13 6.62 0 2.128.401 4.075 1.203 5.84.801 1.743 1.923 3.124 3.366 4.142 1.443.996 3.08 1.494 4.913 1.494Z" fill="#000"/></svg>