<svg xmlns="http://www.w3.org/2000/svg" xmlns:xlink="http://www.w3.org/1999/xlink"><symbol id="bag"><g fill="none"><path d="M17.418 5.34v-.5a.5.5 0 0 0-.494.576l.494-.076Zm1.415 9.099.494-.077-.494.076Zm-2.017 2.329v.5-.5Zm-13.63 0v-.5.5Zm-2.02-2.33-.493-.076.494.076ZM2.583 5.34l.494.076-.494-.076Zm2.02-1.715v.5-.5Zm10.797 0v.5-.5Zm2.02 1.715v.5a.5.5 0 0 0 .494-.577l-.494.077Zm-.495.076 1.415 9.1.988-.154-1.415-9.1-.988.154Zm1.415 9.1a1.5 1.5 0 0 1-.04.646l.96.277c.101-.35.124-.717.068-1.077l-.988.153Zm-.04.646c-.061.21-.167.406-.312.572l.756.655c.239-.276.415-.6.516-.95l-.96-.277Zm-.312.572c-.144.167-.324.301-.526.394l.415.91c.332-.152.628-.373.867-.649l-.756-.655Zm-.526.394c-.202.092-.423.14-.646.14l.001 1c.366 0 .727-.079 1.06-.23l-.415-.91Zm-.645.14H3.186v1h13.63v-1Zm-13.63 0c-.223 0-.444-.048-.646-.14l-.414.91c.333.152.695.23 1.06.23v-1Zm-.646-.14a1.542 1.542 0 0 1-.527-.393l-.755.655c.239.276.535.497.868.648l.414-.91Zm-.527-.393a1.516 1.516 0 0 1-.311-.572l-.96.277c.1.35.277.674.516.95l.755-.655Zm-.311-.572a1.502 1.502 0 0 1-.041-.648l-.989-.153c-.055.36-.032.728.07 1.078l.96-.277Zm-.041-.648 1.415-9.099-.988-.153-1.415 9.099.988.153Zm1.415-9.099c.055-.358.239-.685.519-.923l-.647-.762a2.517 2.517 0 0 0-.86 1.532l.988.153Zm.519-.923c.28-.237.637-.368 1.007-.368v-1c-.606 0-1.193.214-1.654.606l.647.762Zm1.007-.368H15.4v-1H4.602v1Zm10.798 0c.37 0 .727.131 1.007.368l.647-.762a2.556 2.556 0 0 0-1.654-.606v1Zm1.007.368c.28.238.463.565.518.923l.988-.153a2.516 2.516 0 0 0-.86-1.532l-.646.762Zm1.012.347v1-1ZM7.352 3.698c.247-1.66 1.545-2.486 2.895-2.484 1.352.002 2.683.835 2.975 2.497l.985-.173C13.818 1.328 12.01.217 10.248.214 8.483.212 6.694 1.324 6.363 3.551l.989.147Z" fill="#000"/></g></symbol><symbol id="favorite"><g fill="none"><path d="m15.909 8.822-6.901 6.892-6.901-6.892a4.674 4.674 0 0 1-.956-5.297c.27-.58.656-1.097 1.134-1.52a4.564 4.564 0 0 1 5.312-.538 4.614 4.614 0 0 1 1.41 1.262c.381-.51.862-.936 1.413-1.25a4.574 4.574 0 0 1 5.297.549 4.671 4.671 0 0 1 .192 6.8" stroke="#000" stroke-linecap="round" stroke-linejoin="round"/></g></symbol><symbol id="find"><g fill="none"><path d="M15.444 8.08a7.365 7.365 0 1 1-14.73 0 7.365 7.365 0 0 1 14.73 0Z" stroke="#000"/></g></symbol><symbol id="login"><g fill="none"><path d="M1.143 6.074c3.822-7.013 13.892-7.013 17.714 0" stroke="#000"/></g></symbol></svg>